<mxfile host="65bd71144e">
    <diagram id="T9uuaTeBy4bPSP1g8a4x" name="Page-1">
        <mxGraphModel dx="1386" dy="825" grid="1" gridSize="10" guides="1" tooltips="1" connect="1" arrows="1" fold="1" page="1" pageScale="1" pageWidth="827" pageHeight="1169" background="#FFFFFF" math="0" shadow="0">
            <root>
                <mxCell id="0"/>
                <mxCell id="1" parent="0"/>
                <mxCell id="276" value="Single-Step (PS)&amp;nbsp;" style="rounded=0;whiteSpace=wrap;html=1;strokeColor=none;fillColor=none;align=right;" vertex="1" parent="1">
                    <mxGeometry x="240" y="40" width="120" height="40" as="geometry"/>
                </mxCell>
                <mxCell id="277" value="Multi-Step (PS)&amp;nbsp;" style="rounded=0;whiteSpace=wrap;html=1;strokeColor=none;fillColor=none;align=right;" vertex="1" parent="1">
                    <mxGeometry x="240" y="150" width="120" height="40" as="geometry"/>
                </mxCell>
                <mxCell id="278" value="SD_(1..N)" style="rounded=0;whiteSpace=wrap;html=1;fillColor=#dae8fc;strokeColor=#6c8ebf;" vertex="1" parent="1">
                    <mxGeometry x="400" y="100" width="80" height="40" as="geometry"/>
                </mxCell>
                <mxCell id="279" value="SR" style="rounded=0;whiteSpace=wrap;html=1;fillColor=#f5f5f5;fontColor=#333333;strokeColor=#666666;" vertex="1" parent="1">
                    <mxGeometry x="480" y="40" width="80" height="40" as="geometry"/>
                </mxCell>
                <mxCell id="280" value="P/S/U" style="rounded=0;whiteSpace=wrap;html=1;fillColor=#f5f5f5;fontColor=#333333;strokeColor=#666666;" vertex="1" parent="1">
                    <mxGeometry x="560" y="40" width="80" height="40" as="geometry"/>
                </mxCell>
                <mxCell id="281" value="SR_1" style="rounded=0;whiteSpace=wrap;html=1;fillColor=#dae8fc;strokeColor=#6c8ebf;" vertex="1" parent="1">
                    <mxGeometry x="480" y="100" width="80" height="40" as="geometry"/>
                </mxCell>
                <mxCell id="282" value="P/S/U_1" style="rounded=0;whiteSpace=wrap;html=1;fillColor=#dae8fc;strokeColor=#6c8ebf;" vertex="1" parent="1">
                    <mxGeometry x="560" y="100" width="80" height="40" as="geometry"/>
                </mxCell>
                <mxCell id="283" value="SR_2" style="rounded=0;whiteSpace=wrap;html=1;fillColor=#dae8fc;strokeColor=#6c8ebf;" vertex="1" parent="1">
                    <mxGeometry x="560" y="150" width="80" height="40" as="geometry"/>
                </mxCell>
                <mxCell id="284" value="P/S/U_2" style="rounded=0;whiteSpace=wrap;html=1;fillColor=#dae8fc;strokeColor=#6c8ebf;" vertex="1" parent="1">
                    <mxGeometry x="640" y="150" width="80" height="40" as="geometry"/>
                </mxCell>
                <mxCell id="286" value="SD" style="rounded=0;whiteSpace=wrap;html=1;fillColor=#f5f5f5;fontColor=#333333;strokeColor=#666666;" vertex="1" parent="1">
                    <mxGeometry x="400" y="40" width="80" height="40" as="geometry"/>
                </mxCell>
                <mxCell id="287" value="Sequential (ES)&amp;nbsp;" style="rounded=0;whiteSpace=wrap;html=1;strokeColor=none;fillColor=none;align=right;" vertex="1" parent="1">
                    <mxGeometry x="240" y="310" width="120" height="40" as="geometry"/>
                </mxCell>
                <mxCell id="288" value="SD_1, SR_1" style="rounded=0;whiteSpace=wrap;html=1;fillColor=#d5e8d4;strokeColor=#82b366;" vertex="1" parent="1">
                    <mxGeometry x="400" y="260" width="80" height="40" as="geometry"/>
                </mxCell>
                <mxCell id="290" value="P/S/U_1" style="rounded=0;whiteSpace=wrap;html=1;fillColor=#d5e8d4;strokeColor=#82b366;" vertex="1" parent="1">
                    <mxGeometry x="480" y="260" width="80" height="40" as="geometry"/>
                </mxCell>
                <mxCell id="294" value="SD_2, SR_2" style="rounded=0;whiteSpace=wrap;html=1;fillColor=#d5e8d4;strokeColor=#82b366;" vertex="1" parent="1">
                    <mxGeometry x="480" y="310" width="80" height="40" as="geometry"/>
                </mxCell>
                <mxCell id="295" value="P/S/U_2" style="rounded=0;whiteSpace=wrap;html=1;fillColor=#d5e8d4;strokeColor=#82b366;" vertex="1" parent="1">
                    <mxGeometry x="560" y="310" width="80" height="40" as="geometry"/>
                </mxCell>
                <mxCell id="296" value="Opportunistic (ES)&amp;nbsp;" style="rounded=0;whiteSpace=wrap;html=1;strokeColor=none;fillColor=none;align=right;" vertex="1" parent="1">
                    <mxGeometry x="240" y="470" width="120" height="40" as="geometry"/>
                </mxCell>
                <mxCell id="297" value="Concurrent&amp;nbsp;" style="rounded=0;whiteSpace=wrap;html=1;strokeColor=none;fillColor=none;align=right;" vertex="1" parent="1">
                    <mxGeometry x="240" y="630" width="120" height="40" as="geometry"/>
                </mxCell>
                <mxCell id="299" value="SD_1, SR_1" style="rounded=0;whiteSpace=wrap;html=1;fillColor=#ffe6cc;strokeColor=#d79b00;" vertex="1" parent="1">
                    <mxGeometry x="400" y="420" width="80" height="40" as="geometry"/>
                </mxCell>
                <mxCell id="300" value="P/S/U_1" style="rounded=0;whiteSpace=wrap;html=1;fillColor=#ffe6cc;strokeColor=#d79b00;" vertex="1" parent="1">
                    <mxGeometry x="480" y="420" width="80" height="40" as="geometry"/>
                </mxCell>
                <mxCell id="302" value="SD_2, SR_2" style="rounded=0;whiteSpace=wrap;html=1;fillColor=#ffe6cc;strokeColor=#d79b00;" vertex="1" parent="1">
                    <mxGeometry x="440" y="470" width="80" height="40" as="geometry"/>
                </mxCell>
                <mxCell id="303" value="P/S/U_2" style="rounded=0;whiteSpace=wrap;html=1;fillColor=#ffe6cc;strokeColor=#d79b00;" vertex="1" parent="1">
                    <mxGeometry x="520" y="470" width="80" height="40" as="geometry"/>
                </mxCell>
                <mxCell id="305" value="SR_3..." style="rounded=0;whiteSpace=wrap;html=1;fillColor=#dae8fc;strokeColor=#6c8ebf;" vertex="1" parent="1">
                    <mxGeometry x="640" y="200" width="160" height="40" as="geometry"/>
                </mxCell>
                <mxCell id="306" value="SR_3..." style="rounded=0;whiteSpace=wrap;html=1;fillColor=#d5e8d4;strokeColor=#82b366;" vertex="1" parent="1">
                    <mxGeometry x="640" y="360" width="160" height="40" as="geometry"/>
                </mxCell>
                <mxCell id="307" value="SR_3..." style="rounded=0;whiteSpace=wrap;html=1;fillColor=#ffe6cc;strokeColor=#d79b00;" vertex="1" parent="1">
                    <mxGeometry x="560" y="520" width="160" height="40" as="geometry"/>
                </mxCell>
                <mxCell id="309" value="SD_(1..N)" style="rounded=0;whiteSpace=wrap;html=1;fillColor=#fff2cc;strokeColor=#d6b656;" vertex="1" parent="1">
                    <mxGeometry x="400" y="580" width="80" height="40" as="geometry"/>
                </mxCell>
                <mxCell id="310" value="SR_1" style="rounded=0;whiteSpace=wrap;html=1;fillColor=#fff2cc;strokeColor=#d6b656;" vertex="1" parent="1">
                    <mxGeometry x="480" y="580" width="80" height="40" as="geometry"/>
                </mxCell>
                <mxCell id="311" value="SD_2R" style="rounded=0;whiteSpace=wrap;html=1;fillColor=#fff2cc;strokeColor=#d6b656;" vertex="1" parent="1">
                    <mxGeometry x="480" y="630" width="80" height="40" as="geometry"/>
                </mxCell>
                <mxCell id="312" value="SR_2R" style="rounded=0;whiteSpace=wrap;html=1;fillColor=#fff2cc;strokeColor=#d6b656;" vertex="1" parent="1">
                    <mxGeometry x="560" y="630" width="80" height="40" as="geometry"/>
                </mxCell>
                <mxCell id="314" value="SD_3R" style="rounded=0;whiteSpace=wrap;html=1;fillColor=#fff2cc;strokeColor=#d6b656;" vertex="1" parent="1">
                    <mxGeometry x="560" y="680" width="80" height="40" as="geometry"/>
                </mxCell>
                <mxCell id="315" value="P/S/U_3" style="rounded=0;whiteSpace=wrap;html=1;fillColor=#fff2cc;strokeColor=#d6b656;" vertex="1" parent="1">
                    <mxGeometry x="720" y="680" width="80" height="40" as="geometry"/>
                </mxCell>
                <mxCell id="317" value="" style="shape=curlyBracket;whiteSpace=wrap;html=1;rounded=1;labelPosition=left;verticalLabelPosition=middle;align=right;verticalAlign=middle;fillColor=none;" vertex="1" parent="1">
                    <mxGeometry x="360" y="40" width="30" height="40" as="geometry"/>
                </mxCell>
                <mxCell id="318" value="" style="shape=curlyBracket;whiteSpace=wrap;html=1;rounded=1;labelPosition=left;verticalLabelPosition=middle;align=right;verticalAlign=middle;fillColor=none;" vertex="1" parent="1">
                    <mxGeometry x="360" y="100" width="30" height="140" as="geometry"/>
                </mxCell>
                <mxCell id="319" value="" style="shape=curlyBracket;whiteSpace=wrap;html=1;rounded=1;labelPosition=left;verticalLabelPosition=middle;align=right;verticalAlign=middle;fillColor=none;" vertex="1" parent="1">
                    <mxGeometry x="360" y="260" width="30" height="140" as="geometry"/>
                </mxCell>
                <mxCell id="320" value="" style="shape=curlyBracket;whiteSpace=wrap;html=1;rounded=1;labelPosition=left;verticalLabelPosition=middle;align=right;verticalAlign=middle;fillColor=none;" vertex="1" parent="1">
                    <mxGeometry x="360" y="420" width="30" height="140" as="geometry"/>
                </mxCell>
                <mxCell id="321" value="" style="shape=curlyBracket;whiteSpace=wrap;html=1;rounded=1;labelPosition=left;verticalLabelPosition=middle;align=right;verticalAlign=middle;fillColor=none;" vertex="1" parent="1">
                    <mxGeometry x="360" y="580" width="30" height="140" as="geometry"/>
                </mxCell>
                <mxCell id="322" value="Pre-specified" style="rounded=0;whiteSpace=wrap;html=1;fillColor=none;strokeColor=none;align=right;" vertex="1" parent="1">
                    <mxGeometry x="80" y="40" width="120" height="200" as="geometry"/>
                </mxCell>
                <mxCell id="323" value="Evolutionary" style="rounded=0;whiteSpace=wrap;html=1;fillColor=none;strokeColor=none;align=right;" vertex="1" parent="1">
                    <mxGeometry x="80" y="260" width="120" height="460" as="geometry"/>
                </mxCell>
                <mxCell id="324" value="" style="shape=curlyBracket;whiteSpace=wrap;html=1;rounded=1;labelPosition=left;verticalLabelPosition=middle;align=right;verticalAlign=middle;fillColor=none;" vertex="1" parent="1">
                    <mxGeometry x="210" y="40" width="30" height="200" as="geometry"/>
                </mxCell>
                <mxCell id="325" value="" style="shape=curlyBracket;whiteSpace=wrap;html=1;rounded=1;labelPosition=left;verticalLabelPosition=middle;align=right;verticalAlign=middle;fillColor=none;" vertex="1" parent="1">
                    <mxGeometry x="210" y="260" width="30" height="460" as="geometry"/>
                </mxCell>
            </root>
        </mxGraphModel>
    </diagram>
</mxfile>